<?xml version="1.0" encoding="UTF-8"?>
<svg id="Layer_2" data-name="Layer 2" xmlns="http://www.w3.org/2000/svg" viewBox="0 0 197.57 178.44">
  <g id="Layer_1-2" data-name="Layer 1">
    <g>
      <path d="m41.76,77.19c27.78.33,55.56.92,83.34.84,9.94-.03,19.86-1.86,29.81-2.52,16.33-1.08,15.74.87,15.75,13.9.01,11.21-1.33,12.61-12.63,12.39-21.46-.42-42.91-1.59-64.36-1.47-17.27.1-34.56,1.4-51.8,2.65-13.07.94-14.72-.25-14.86-13.54-.14-13.33.15-13.6,14.76-12.26Z"/>
      <path d="m134.63,60.51c-8.98,8.9-10.61,8.7-16.98-2.97-6.04-11.08-11.98-22.21-18.22-33.81-6.82,11.9-13.34,23.28-19.86,34.65-.83,1.44-1.77,2.84-2.45,4.35-1.89,4.2-4.59,4.86-8.27,2.16-2.12-1.56-4.31-3.03-6.81-4.77,14.69-16.93,23-36.86,30.77-57.03,1.5-3.88,4.25-2.95,6.9-3.03,2.59-.08,5.02-.48,6.36,3.1,3.67,9.8,7.31,19.69,11.99,29.03,4.81,9.62,10.83,18.63,16.58,28.33Z"/>
      <path d="m197.57,169.55c-.57.8-.99,1.5-1.5,2.12-7.54,9.14-12.68,9.05-19.68-.44-7.3-9.9-14.14-20.16-21.87-29.71-6.02-7.44-13.08-14.02-20.19-21.52,3.74-1.63,7.74-4.26,12.04-4.91,2.65-.4,6.59,1.45,8.51,3.59,9.33,10.38,18.2,21.17,27.16,31.88,5.22,6.24,10.31,12.6,15.52,18.99Z"/>
      <path d="m63.98,121.06c-19.96,12.58-31,32.05-43.81,50.02-4.34,6.09-10.53,7.84-16.53,4.87-3.42-1.69-4.66-4.17-2.75-7.71.78-1.46,1.63-2.91,2.68-4.18,11.34-13.74,22.61-27.52,34.13-41.11,8.57-10.11,10.71-10.35,22.45-4.08,1.02.55,2.02,1.15,3.83,2.19Z"/>
    </g>
  </g>
</svg>