<?xml version="1.0" encoding="UTF-8"?>
<svg id="Layer_2" data-name="Layer 2" xmlns="http://www.w3.org/2000/svg" viewBox="0 0 183.52 148.87">
  <g id="Layer_1-2" data-name="Layer 1">
    <g>
      <path d="m135.44,86.1c-31.24.77-62.48,1.51-93.71,2.34-4.15.11-8.28.75-12.43.88-3.41.1-6-1.66-6.33-5.11-.48-5.1-.45-10.26-.48-15.4-.03-4.85,2.64-6.8,7.34-6.58,12.96.62,25.92,1.16,38.88,1.72,26.46,1.15,52.9,1.32,79.22-2.13,16.01-2.1,17.94-.6,17.77,15.49-.1,9.53-.83,10.28-10.25,10.29-6.66.01-13.31,0-19.97,0-.01-.51-.02-1.01-.04-1.52Z"/>
      <path d="m171.18,51.46c-4.77-4.16-9.21-8.16-13.79-11.99-21.95-18.34-46.88-28.71-75.81-26.04-24.22,2.24-45.93,10.41-61.41,30.77-6.42,8.44-12.05,8.3-18.7.59-2.09-2.43-1.81-4.15-.1-6.52C11.37,24.42,24.85,15.23,40.66,9.5c32.39-11.73,65.22-13.33,97.57-.67,13.05,5.11,24.99,13.12,37.28,20.08,4.62,2.62,5.55,8.68,2.43,13.59-1.94,3.06-4.36,5.81-6.76,8.95Z"/>
      <path d="m12.23,97.46c6.3,5.36,11.96,10.53,17.96,15.25,35.91,28.21,80.96,30.94,117.61,6.86,5.17-3.4,9.28-8.43,13.79-12.8,1.66-1.61,2.9-3.67,4.59-5.25,5.55-5.2,15.36-2.5,17.28,4.87.32,1.25-.74,3.12-1.63,4.37-9.98,14.1-23.76,23.2-39.75,28.89-32.28,11.48-64.96,12.97-97.11.3-13.04-5.14-24.97-13.17-37.24-20.16-4.32-2.46-5.24-8.59-2.31-13.26,1.93-3.08,4.37-5.85,6.82-9.06Z"/>
    </g>
  </g>
</svg>