<svg viewBox="0 0 256 256" version="1.1" xmlns="http://www.w3.org/2000/svg">
    <path d=" M 14.02 26.02 C 90.01 25.99 165.99 25.99 241.98 26.02 C 242.01 31.72 242.03 37.42 241.97 43.12 C 235.75 44.21 229.26 46.10 224.80 50.82 C 221.67 54.02 220.23 58.54 220.32 62.96 C 220.31 110.98 220.30 159.00 220.33 207.02 C 220.05 209.44 223.82 210.83 222.33 213.32 C 217.90 218.61 213.49 223.94 209.87 229.84 C 207.33 226.17 204.99 222.35 202.08 218.95 C 200.46 216.90 198.48 215.14 197.15 212.88 C 196.71 210.93 198.39 209.51 199.36 208.05 C 199.35 191.93 199.44 175.81 199.31 159.69 C 188.14 159.59 176.97 159.58 165.80 159.69 C 165.71 175.48 165.76 191.26 165.77 207.04 C 165.72 209.26 168.64 210.55 167.96 212.91 C 167.14 214.39 165.93 215.60 164.84 216.87 C 161.26 220.85 158.16 225.25 155.47 229.88 C 153.01 226.85 151.15 223.39 148.66 220.38 C 146.75 217.83 144.36 215.66 142.61 212.98 C 141.75 210.56 145.04 209.37 144.80 207.03 C 144.85 191.29 144.78 175.54 144.83 159.80 C 133.62 159.51 122.38 159.51 111.17 159.80 C 111.22 175.54 111.15 191.29 111.20 207.03 C 110.97 209.36 114.17 210.56 113.37 212.97 C 111.62 215.64 109.24 217.81 107.33 220.37 C 104.83 223.38 102.95 226.85 100.50 229.90 C 97.84 225.26 94.72 220.87 91.15 216.89 C 90.05 215.61 88.82 214.41 88.02 212.91 C 87.34 210.54 90.26 209.27 90.23 207.05 C 90.24 191.26 90.29 175.48 90.20 159.69 C 79.03 159.57 67.86 159.59 56.69 159.69 C 56.56 175.81 56.65 191.93 56.64 208.05 C 57.59 209.51 59.27 210.93 58.83 212.88 C 57.77 214.74 56.19 216.22 54.83 217.86 C 51.53 221.55 48.91 225.77 46.12 229.84 C 43.20 225.49 40.36 221.05 36.82 217.16 C 35.64 215.70 34.12 214.43 33.40 212.67 C 32.85 210.41 35.90 209.27 35.61 207.01 C 35.65 158.99 35.60 110.98 35.63 62.97 C 35.80 58.30 34.13 53.53 30.68 50.31 C 26.23 45.95 20.02 44.17 14.03 43.12 C 13.96 37.42 13.98 31.72 14.02 26.02 M 56.69 50.85 C 56.57 62.03 56.59 73.20 56.68 84.37 C 67.85 84.48 79.03 84.49 90.20 84.37 C 90.27 73.20 90.29 62.03 90.19 50.86 C 79.03 50.78 67.86 50.79 56.69 50.85 M 111.20 50.92 C 111.15 62.03 111.23 73.14 111.15 84.24 C 116.76 84.68 122.39 84.33 128.00 84.44 C 133.62 84.32 139.24 84.70 144.85 84.23 C 144.76 73.13 144.85 62.03 144.80 50.92 C 133.60 50.74 122.40 50.75 111.20 50.92 M 165.81 50.86 C 165.71 62.03 165.73 73.20 165.80 84.37 C 176.97 84.49 188.15 84.48 199.32 84.37 C 199.40 73.20 199.43 62.03 199.31 50.85 C 188.14 50.79 176.97 50.78 165.81 50.86 M 56.68 105.01 C 56.61 116.02 56.54 127.04 56.71 138.05 L 57.26 138.55 C 68.15 138.78 79.05 138.47 89.93 138.70 C 90.15 137.14 90.33 135.57 90.28 133.99 C 90.17 124.34 90.33 114.68 90.20 105.02 C 79.03 104.98 67.86 105.00 56.68 105.01 M 111.17 105.06 C 111.24 116.25 111.09 127.45 111.25 138.64 C 122.42 138.61 133.58 138.61 144.75 138.64 C 144.91 127.45 144.76 116.25 144.83 105.06 C 133.61 104.96 122.39 104.96 111.17 105.06 M 165.80 105.02 C 165.67 114.68 165.83 124.34 165.72 134.00 C 165.67 135.57 165.85 137.14 166.07 138.70 C 176.96 138.48 187.86 138.78 198.75 138.55 L 199.29 138.04 C 199.46 127.04 199.39 116.02 199.32 105.01 C 188.14 105.00 176.97 104.98 165.80 105.02 Z"/>
</svg>
