<svg xmlns="http://www.w3.org/2000/svg" viewBox="0 0 43.56 40.51">
  <g>
    <path class="cls-1" d="M20.9,12.53c0,2.05.04,4.09-.03,6.14-.02.47-.26,1.16-.61,1.37-3.67,2.15-7.39,4.2-11.06,6.33-.79.45-1.23.4-1.8-.36-2.06-2.78-4.19-5.52-6.32-8.24-.55-.7-.73-1.25-.22-2.12,2.17-3.67,4.27-7.39,6.36-11.11.42-.75.85-1.01,1.76-.87,3.47.53,6.96.92,10.44,1.4,1.47.2,1.48.25,1.49,1.71.01,1.92,0,3.84,0,5.76Z"/>
    <path class="cls-1" d="M35.08,3.54c.28.21.89.46,1.16.92,2.25,3.84,4.45,7.7,6.62,11.59.18.32.1.99-.13,1.29-2.1,2.82-4.24,5.63-6.43,8.39-.97,1.22-1.25,1.2-2.59.43-3.25-1.89-6.48-3.81-9.76-5.66-.91-.51-1.3-1.09-1.28-2.18.07-3.9.03-7.81.03-11.71,0-.68-.09-1.34.92-1.47,3.72-.49,7.44-1.03,11.46-1.6Z"/>
    <path class="cls-1" d="M21.74,40.49c-1.91,0-3.82,0-5.73,0-1.78,0-1.78,0-2.42-1.59-1.18-2.92-2.34-5.85-3.52-8.78-.23-.56-.82-1.22-.67-1.63.16-.43,1-.59,1.53-.9,3.2-1.86,6.4-3.7,9.57-5.6.87-.52,1.54-.63,2.48-.05,3.31,2.03,6.68,3.97,10.06,5.87.88.5,1.05.95.65,1.89-1.35,3.18-2.64,6.4-3.89,9.62-.35.9-.86,1.2-1.79,1.18-2.09-.06-4.19-.02-6.28-.02Z"/>
    <path class="cls-1" d="M43.51,21.69c.22,1.11-.28,2.2-.92,3.3-1.99,3.41-3.97,6.83-5.87,10.29-.97,1.76-2.51,2.79-4.21,3.66-.13.07-.31.04-.47.05,0-.18-.05-.37,0-.52,1.73-3.98,2.84-8.26,5.71-11.7,1.66-1.99,3.16-4.11,4.76-6.15.24-.31.6-.52.91-.78.03.37.07.73.09,1.1.01.18,0,.37,0,.75Z"/>
    <path class="cls-1" d="M.21,19.75c.2.17.36.26.46.4,2.83,4.02,6.52,7.44,8.09,12.33.63,1.96,1.72,3.77,2.59,5.66.12.26.12.57.18.85-.27-.07-.54-.11-.8-.2-1.98-.66-3.18-2.06-4.15-3.9-1.82-3.45-3.75-6.83-5.79-10.15C-.1,23.28,0,21.8,0,20.26c0-.15.12-.31.2-.52Z"/>
    <path class="cls-1" d="M21.76.05c2.16,0,4.33.11,6.48-.04,1.62-.11,2.84.62,4.09,1.41.15.09.25.26.38.39-.21.12-.4.31-.62.34-2.07.31-4.18.46-6.22.91-3.98.89-7.85-.07-11.75-.53-.37-.04-.73-.1-1.09-.19-.75-.18-1.49-.37-2.23-.56.61-.41,1.18-.9,1.85-1.19.65-.29,1.39-.51,2.09-.52,2.34-.06,4.69-.02,7.03-.02Z"/>
  </g>
</svg>
