<svg xmlns="http://www.w3.org/2000/svg" width="32" height="32" viewBox="0 0 32 32"><path d="M9.545 16.107a2.17 2.17 0 0 0-1.525-.515h.005-3.137l-1.752-2.751h4.922a1.8 1.8 0 0 0 1.293-.357l-.004.003a1.85 1.85 0 0 0 .399-1.387l.001.009a1.36 1.36 0 0 0-1.359-1.347h-.027.001-3.666L2.982 7.056c.186-.034.407-.06.633-.07h4.727a1.2 1.2 0 0 0 1.285-.637l.003-.007c.109-.229.172-.497.172-.78 0-.393-.122-.757-.331-1.056l.004.006a1.17 1.17 0 0 0-1.082-.476h.005-5.405L.455.003h12.24v20.801a7.63 7.63 0 0 1-1.503 4.446l.015-.021a7.8 7.8 0 0 1-2.747 2.402l-.043.02-1.288-.374c.406-.483.767-.895 1.115-1.327a7.4 7.4 0 0 0 1.413-3.466l.004-.038c.309-1.862.09-3.743.135-5.617a2.4 2.4 0 0 0-.258-.734l.006.013zM19.363.002h12.182l-2.506 4.013h-2.757c-.85 0-1.701.045-2.577 0-1.153-.097-1.688.812-1.346 2.023.082.224.18.418.297.598l-.007-.011a1.36 1.36 0 0 0 1.022.354h-.004 5.327c-.419 1.089-1.166 1.842-1.623 2.783H23.77a1.374 1.374 0 0 0-1.408.918l-.003.01a1.66 1.66 0 0 0 .424 1.835l.001.001a1.46 1.46 0 0 0 1.002.322h-.004H28.8c-.432 1.031-1.14 1.804-1.591 2.751h-3.962a1.64 1.64 0 0 0-.998 1.669l-.001-.007c.039 1.288-.039 2.525.032 3.788v.056a8.34 8.34 0 0 0 .988 3.95l-.022-.045c.43.667.842 1.234 1.28 1.779l-.031-.039c.116.155.271.29.477.515l-1.327.399a8.6 8.6 0 0 1-3.199-3.098l-.022-.039a6.4 6.4 0 0 1-.966-3.084l-.001-.015c0-.644-.103-1.288-.122-1.933 0-.303.077-.606.097-.908v-2.738c0-.103.032-.2.032-.303l-.116-2.789v-.464c0-1.83-.032-3.659 0-5.489 0-.728-.052-1.462 0-2.19 0-.354.09-.709.11-1.063v-.075a6 6 0 0 0-.042-.713l.003.028c0-.129-.09-.258-.071-.374.11-.754-.071-1.533.013-2.416zM15.601 29.7c.374-.155 0-.464.11-.728l-.786.599a15 15 0 0 1-.231-3.294l-.001.028-.348-.38c.064-.457.11-.941.206-1.404a20 20 0 0 0 .119-3.82l.003.058c0-.644-.116-1.288-.122-1.984 0-.38.122-.754.122-1.134V.08a10 10 0 0 1 1.269-.079l.217.002h-.011 1.424c0 .174.032.296.032.419v24.789c0 1.288-.18 2.641-.296 3.962 0 .11-.116.206-.238.406l-.064-.767h-.129v1.52l-.496.206.116.374-.644 1.089c-.135-.812.116-1.591-.206-2.319zm.347 1.669h.09v-.709h-.09zm-.335-1.682"/></svg>