<svg xmlns="http://www.w3.org/2000/svg" viewBox="0 0 14.951 29.556"><g data-name="Layer 2"><path d="m1.847 11.66.058-.057h.058v-.058q-.347-.52-.404-.577a.41.41 0 0 1-.058-.462q.115.116.115.144t.174-.086l.173.23a1.3 1.3 0 0 1 .173.29l.173.173v-.058a.64.64 0 0 1 .058-.289q.057-.115-.116-.288-.057 0-.115-.174-.058 0-.087-.086a.4.4 0 0 0-.086-.145.5.5 0 0 0-.404-.23q0-.116-.174-.231a.05.05 0 0 1-.057-.058q0-.058-.404-.346L.693 9.12a.45.45 0 0 1 .404.115l.173.173a.33.33 0 0 0 .346.116h.174q0 .057.288.23.116-.115.116-.173a.42.42 0 0 1 .346.145q.115.144.173-.03.231-1.096.231-1.154a3.7 3.7 0 0 1 .289-.923 8 8 0 0 1 .288-.808 4 4 0 0 1 .202-.491l.087-.087.288-.866a.26.26 0 0 0 .058-.288q-.058 0-.115-.231.115-.058 0-.23a.6.6 0 0 0-.231-.405q-.058-.058-.173-.202a1.4 1.4 0 0 1-.145-.202.5.5 0 0 0-.144-.144l-.115-.087a.7.7 0 0 1-.116-.173.5.5 0 0 1 .144.029.6.6 0 0 0 .202.029.4.4 0 0 1 .29-.116l-.116.116q-.116.057 0 .115.057 0 .173.289.058.057.173 0l.058.057h.115a.17.17 0 0 0 .058-.115.33.33 0 0 0-.058-.231q-.057 0-.057-.115l.23.173.116.115a.19.19 0 0 0 .23-.058 1.3 1.3 0 0 0 .405-.692.34.34 0 0 1 .173-.289l.23-.23a2.4 2.4 0 0 0 .52-.636 5 5 0 0 0 .29-.52.9.9 0 0 1 .23-.346A3.2 3.2 0 0 0 7.1.461q.116-.115.116-.172.288-.116.288-.289.174.23.231.23a.33.33 0 0 1 .116.232V.52q.057 0 .26.202l.317.317a.56.56 0 0 1 .23.289 2.6 2.6 0 0 0 .347.635q.058 0 .058.115a.74.74 0 0 0 .346.346.4.4 0 0 1 .087.202q.029.145.26.145.057.23.115.23a.92.92 0 0 0 .289.52l.057.116a.25.25 0 0 0 .347.057l.173-.115a1 1 0 0 0-.058.23q0 .174.173.116a.31.31 0 0 0 .347-.23.17.17 0 0 1 .058-.116l.173-.115a.87.87 0 0 0 .52-.231q0 .057-.174.23l-.866.866-.058.116a.5.5 0 0 0-.057.23.185.185 0 0 1-.116.174v.23h.173v.059l.116.923a.24.24 0 0 0 .058.173.96.96 0 0 1 .288.404q.173.405.462 1.04a.7.7 0 0 1 .116.288v.058a11 11 0 0 0 .288 1.039 1.8 1.8 0 0 0 .116.404l.115.173h.058q.173-.115.288 0a.25.25 0 0 0 .347-.058l.115-.057a.072.072 0 0 1 .116 0 .19.19 0 0 0 .23-.058l.145-.144.144-.087a.56.56 0 0 1 .289-.115.185.185 0 0 1-.116.173.9.9 0 0 0-.23.173.09.09 0 0 0-.087.058.09.09 0 0 1-.087.057q-.115.116-.115.174a.226.226 0 0 0-.173.23.234.234 0 0 0-.289.116q0 .058-.087.115t-.086.116a2 2 0 0 0-.144.173 2 2 0 0 1-.145.173.25.25 0 0 0 .058.347l.058.115a.73.73 0 0 1 .346-.404l.115-.23a.7.7 0 0 0 .116.172.4.4 0 0 0 .086-.144q.03-.087.087-.087 0 .058.116.174l.057.057a.35.35 0 0 1-.23.231 1.5 1.5 0 0 0-.52.635 1.4 1.4 0 0 0 .577-.23v.115h-.058v.057q.058.116-.23.462-.866 1.04-.924 1.155t-.577.981l-.058.058a1.25 1.25 0 0 0-.347.404 3 3 0 0 1-.346.577l-.029.058-.029.086q-.028.087-.288.664a3 3 0 0 1-.173.404.9.9 0 0 0-.116.347 7 7 0 0 0-.346.923q-.058 0-.116.087a1 1 0 0 1-.115.144q-.173.462-.404.982a2.6 2.6 0 0 1-.231.461q-.058 0-.116.116l-.028.173-.087.23a7 7 0 0 0-.289.81q-.057.23-.173.634a2.5 2.5 0 0 0-.115.635 4 4 0 0 0-.116.462 3 3 0 0 0-.057.346.7.7 0 0 1-.058.202.7.7 0 0 0-.058.202v.173q-.115.75-.115.866v1.04a3.5 3.5 0 0 1-.058.519 4 4 0 0 0-.058.606 2 2 0 0 1-.057.49v.52a5.6 5.6 0 0 0-.058 1.04v.173l-.058.173v.692a.24.24 0 0 1-.058.174v-.116a4.7 4.7 0 0 0-.115-.808v-.693l-.058-.23a2 2 0 0 0-.029-.29 2.3 2.3 0 0 1-.029-.374.7.7 0 0 0-.057-.318v-.462l-.058-.23Q7.1 24.706 7.1 24.648q-.115-.924-.173-1.27a1.6 1.6 0 0 0-.029-.318q-.029-.144-.057-.26t-.087-.288a1 1 0 0 1-.058-.289q0-.057-.173-.866-.23-.865-.404-1.385a6 6 0 0 1-.404-.895q-.231-.606-.347-.894-.057-.174-.144-.376t-.173-.375-.202-.375a2 2 0 0 1-.173-.375 3 3 0 0 0-.202-.52q-.202-.462-.318-.692a.4.4 0 0 1-.086-.145l-.03-.086a8 8 0 0 0-.461-.809q-.173-.23-.924-1.616a6.2 6.2 0 0 0-.808-1.154M9.64 7.274q0 .116-.058.116a10 10 0 0 0-.461 1.27q-.058.115-.26.548a4 4 0 0 0-.26.664.53.53 0 0 0-.029.289 2 2 0 0 0 .145.346.9.9 0 0 1 .173.231.5.5 0 0 0 .086.202 1 1 0 0 0 .145.202.7.7 0 0 1 .115.404 4 4 0 0 0 .116.462v.115l.057.058.058.173a1.8 1.8 0 0 0 .115.404.56.56 0 0 0 .231-.288l.231-.462.116-.116q.173 0 .288-.288a1.03 1.03 0 0 1 .347-.52.185.185 0 0 0 .115-.173 2.1 2.1 0 0 0-.23-.866.84.84 0 0 1-.116-.346l-.029-.087-.029-.144q-.23-.75-.289-.981a1.3 1.3 0 0 1-.115-.404.17.17 0 0 0-.058-.116q-.057-.115-.404-.693m-4.387 0-.115.29a4 4 0 0 0-.174.519 2.2 2.2 0 0 1-.23.577q-.058.173-.174.548t-.173.549l-.346 1.039a.33.33 0 0 0 .115.23 3 3 0 0 1 .289.462 1.5 1.5 0 0 0 .289.405.9.9 0 0 1 .173.23 3 3 0 0 0 .404.578l.057-.058q.116-.462.174-.462.057-.173.173-.75a2 2 0 0 1 .115-.347l.116-.115a5 5 0 0 1 .346-.75.37.37 0 0 0 0-.29 4 4 0 0 0-.23-.634l-.059-.173a5 5 0 0 1-.23-.549l-.231-.635-.231-.548Zm2.02-.346q.174 0 .174-.115a1.8 1.8 0 0 0 .173-.404 1 1 0 0 0 .144-.202q.087-.145.144-.26a2.3 2.3 0 0 1 .231-.52v-.058a.4.4 0 0 0 .087-.173 1 1 0 0 1 .087-.23l.115-.231a.8.8 0 0 0 .058-.52 3.3 3.3 0 0 0-.404-1.04.09.09 0 0 1-.087-.057.3.3 0 0 1-.029-.115L7.62 2.31l-.231-.404a2.2 2.2 0 0 0-.231.462q-.289.635-.52 1.039a.6.6 0 0 0-.115.23l-.23.636a.25.25 0 0 0 0 .23q.23.636.345.867a.6.6 0 0 1 .116.23.5.5 0 0 0 .029.145.5.5 0 0 1 .029.144q.057.116.173.404Zm.174 10.102.115-.23q.404-.751.75-1.444l.116-.346a.31.31 0 0 0-.029-.376 1.5 1.5 0 0 1-.202-.375 2 2 0 0 1-.173-.577 1.74 1.74 0 0 0-.462-.75q-.058-.058-.173 0a1.7 1.7 0 0 0-.289.461 5 5 0 0 1-.288.75 1.3 1.3 0 0 1-.173.29.76.76 0 0 0-.058.75q.058.058.75 1.558Zm5.137-6.58q-.23 0-.23.173.057 0 .115-.087t.115-.087m1.847.115a.6.6 0 0 1-.115.346l-.058-.058a.56.56 0 0 1 .116-.288ZM.404 8.832A.73.73 0 0 1 0 8.543a.84.84 0 0 1 .404.289m14.2 1.27a.5.5 0 0 1 .116-.087l.058-.028q.058.057 0 .144l-.058.086Zm.058-1.385a.47.47 0 0 1 .289-.174.47.47 0 0 1-.289.174M2.02 10.622a.185.185 0 0 1-.115-.174v-.115a.234.234 0 0 1 .115.289m11.661 0q-.115-.174 0-.231l.058.057Zm.346-.578v.173q0-.057-.115-.173l.058-.057a.05.05 0 0 0 .057.057M.404 8.832a.114.114 0 0 1 .173.058.114.114 0 0 1-.173-.058m13.97.058a.114.114 0 0 1 .173-.058.24.24 0 0 1-.173.058M3.406 4.099q.058.115 0 .115-.058.058-.058 0a.17.17 0 0 1 .058-.115m11.199 5.83h-.116V9.87q.116-.058.116 0Zm-.231.058a.185.185 0 0 1 .115.173.185.185 0 0 1-.115-.173m-13.104.52q-.115 0-.058-.059l.058-.057a.072.072 0 0 1 0 .115M3.925 4.79q-.057.058-.086.058t-.03-.058.03-.057.086.057M1.79 10.275a.102.102 0 0 1-.116-.115.102.102 0 0 1 .116.115m10.506-7.389-.058.058-.058-.058a.05.05 0 0 0 .058-.057ZM11.14 4.734v.057l-.058.058v-.115Zm2.77 5.541-.057.058h-.058a.17.17 0 0 0 .058-.116l.029.03Zm.232.289.058.058-.058.057q-.058 0-.058-.029t.058-.086M3.002 3.348V3.29h.057a.05.05 0 0 1-.057.058m-1.847 6.927-.058.058a.05.05 0 0 1-.058-.058l.058-.058a.05.05 0 0 0 .058.058" data-name="Layer 1"/></g></svg>