<?xml version="1.0" encoding="UTF-8"?>
<svg id="Layer_2" data-name="Layer 2" xmlns="http://www.w3.org/2000/svg" viewBox="0 0 179.8 176.51">
  <g id="Layer_1-2" data-name="Layer 1">
    <g>
      <path d="m32.41,71.43c27.78.32,55.56.91,83.33.83,9.94-.03,19.86-1.84,29.82-2.49,16.36-1.07,15.76.84,15.77,13.87.02,11.24-1.31,12.63-12.6,12.42-22.46-.43-44.91-1.56-67.36-1.47-16.28.07-32.57,1.37-48.81,2.62-12.92,1-14.68-.21-14.89-13-.23-13.78.13-14.11,14.74-12.78Z"/>
      <path d="m171.91,50.79c-10.94-8.12-20.7-16.93-31.85-23.36C104.39,6.86,68.75,7.88,34.11,30.39c-4.23,2.75-7.58,6.9-11.2,10.53-1.87,1.88-3.27,4.23-5.16,6.08-5.73,5.61-15.48,3.19-17.68-4.48-.35-1.21.73-3.1,1.61-4.35,8.28-11.74,19.32-20.21,32.4-25.82,34.32-14.72,69.43-16.82,104.45-3.44,13.07,5,24.96,13.17,37.25,20.13,4.14,2.35,5.24,8.19,2.58,12.78-1.9,3.28-4.42,6.19-6.44,8.96Z"/>
      <path d="m126.28,116.41c-14.78,17.11-23.07,37.06-30.83,57.26-1.63,4.23-4.87,2.4-7.54,2.71-2.29.26-4.38.34-5.5-2.76-2.88-7.97-5.68-16.03-9.48-23.58-5.79-11.5-12.38-22.6-19.03-34.58-.55,1.02-.45.66-.22.44,8.83-8.66,10.79-8.43,16.67,2.34,6.13,11.23,12.13,22.52,18.52,34.4,1.02-1.55,1.83-2.65,2.49-3.82,6.49-11.43,12.94-22.87,19.43-34.3,3.19-5.63,4.3-5.9,9.63-2.34,1.79,1.2,3.49,2.52,5.86,4.23Z"/>
    </g>
  </g>
</svg>