<svg xmlns="http://www.w3.org/2000/svg" viewBox="0 0 32 32" xml:space="preserve" version="1.1" xmlns:xlink="http://www.w3.org/1999/xlink"><path d="m10.379 22.022-.001.002zm7.059-20.8.026.005.039.003z"></path><path d="M28.641 16.167a10 10 0 0 0-.525-1.87 7.3 7.3 0 0 1-.432-2.417c.004-1.159-.051-2.317-.078-3.365l.004-.002c-.321-.545-.543-.893-.973-1.066-.331-.134-.529-.393-.706-.71l-.025-.049a10.3 10.3 0 0 0-2.416-2.832c-1.761-1.424-3.742-2.345-6.026-2.629-.55-.074-1.11-.116-1.681-.116-1.214 0-2.389.175-3.41.482l-.08.019c-2.614.762-4.838 2.437-6.332 4.7-.356.539-.659 1.055-1.284 1.333l-.006.002a1.07 1.07 0 0 0-.585.883 22 22 0 0 0-.136 1.728c-.023.636.01 1.27-.023 1.904v.014a7 7 0 0 1-.185 1.385c-.138.556-.358 1.093-.535 1.642-.23.71-.36 1.445-.179 2.175.284 1.138 1.122 1.807 2.132 2.284.117.057.292-.017.412-.017.183-.35-.051-.554-.159-.774-.161-.327-.372-.644-.543-.961-.311-.587-.192-1.12.237-1.596.181-.173.373-.334.592-.495.342.062.728.064 1.045.21l.043.018c.496.228.959.512 1.369.833.784.617 1.216 1.432 1.171 2.467a15 15 0 0 0 0 1.507c.023.377.103.764.16 1.171h.892c.285-.315.471-.723.503-1.181.174-1.458 1.069-2.288 2.362-2.75a7.6 7.6 0 0 1 2.583-.453c.848 0 1.665.138 2.375.379 1.404.444 2.379 1.296 2.572 2.867.047.399.138.836.494 1.126h.899c.051-.43.121-.815.142-1.202a17 17 0 0 0 0-1.428c-.045-1.196.506-2.068 1.457-2.723.671-.465 1.346-.947 2.27-.753l.014.008q.185.124.346.263c.593.556.696 1.117.329 1.848-.146.282-.317.543-.477.819-.126.224-.317.43-.226.761l-.006-.002a1 1 0 0 0 .272.089h.019c.103 0 .2-.027.282-.072 1.379-.735 2.29-1.7 2.062-3.385zM12.929 9.639c-.126.644-.492 1.163-1.2 1.323-.636.146-1.262.329-1.904.442-.774.134-1.554.23-2.334.307-.87.088-1.332-.191-1.492-1.21-.217-1.44.517-2.65 2.013-3.161 1.052-.36 2.157-.571 3.244-.822a7 7 0 0 1 1.265-.156h.008c.202.019.395.068.56.138l.002.002q.043.49.045.992a11 11 0 0 1-.207 2.145m4.958 3.892c-.103.235-.218.467-.317.677h.002c-.714.233-1.148-.054-1.603-.459-.175.064-.366.126-.55.206-.121.051-.226.134-.344.191-.62.287-1.074.111-1.312-.518a3.4 3.4 0 0 1-.131-1.877l.006-.041a6.7 6.7 0 0 1 1.183-2.76c.033-.041.049-.095.08-.136.575-.736 1.264-.754 1.82-.015a6.8 6.8 0 0 1 1.293 3.016c.091.565.111 1.162-.127 1.716m7.495-2.274-.002.004a1.04 1.04 0 0 1-1.025.453c-1.453-.165-2.902-.323-4.33-.706-.731-.194-1.29-.731-1.365-1.71-.07-.889-.134-1.778-.196-2.583l-.004.002c.352-.475.698-.397.994-.348 1.338.214 2.673.455 3.966.899.757.259 1.307.747 1.852 1.294.587.581.435 2.219.11 2.695m-2.287 12.539v-.005z"></path><path d="m23.552 28.058-.005.01-.017.058zM7.397 18.959l.002-.001.006-.05z"></path><path d="M23.416 19.243a3.5 3.5 0 0 0-.312 1.45v.012q.004 1.544-.01 3.086l.002.127c0 .549-.158 1.058-.424 1.478l-.831-.037c-.27-.652-.51-1.214-.967-1.69-.634-.659-1.41-1.054-2.256-1.399-2.284-.918-4.49-.634-6.614.434-1.056.531-1.883 1.352-2.146 2.546-.449.212-.449.212-.951.095l-.002.001a3.7 3.7 0 0 1-.383-1.546c-.01-1.06.025-2.118-.027-3.173l-.002-.021a5.2 5.2 0 0 0-.331-1.42c-.105-.307-.375-.419-.765-.23a8 8 0 0 0-.134 1.135c.016.815.088 1.628.13 2.441.058 1.132.064 2.27.185 3.392l.006.06c.103.772.282 1.519.502 2.153.235.755 1.255 1.56 2.258 1.368l.027-.006a4 4 0 0 0 1.045-.451c.829-.442 1.631-.937 2.474-1.348a3.97 3.97 0 0 1 2.706-.364l.07.016c.71.195 1.389.465 1.973.776.611.3 1.169.704 1.758 1.052 1.212.722 2.691.222 3.148-1.114.24-.697.41-1.43.491-2.232.121-1.311.132-2.63.196-3.947.012-.234.066-.465.08-.7.039-.778.183-1.568-.185-2.291-.383-.117-.577.053-.711.347"></path><path d="m23.41 19.254.006-.011.003-.01z"></path></svg>